<svg version="1.1" id="Layer_1" xmlns="http://www.w3.org/2000/svg" x="0" y="0" viewBox="0 0 279.2 155.8" xml:space="preserve"><style>.st4{fill:#e8e9ec}</style><path d="M2.5 16.6h256.1c1.1 0 2 .9 2 2v134.7c0 1.1-.9 2-2 2H2.5c-1.1 0-2-.9-2-2V18.6c-.1-1.1.8-2 2-2z" fill="#fff"/><path d="M258.5 155.8H2.5c-1.4 0-2.5-1.1-2.5-2.5V18.6c0-1.4 1.1-2.5 2.5-2.5h256.1c1.4 0 2.5 1.1 2.5 2.5v134.7c-.1 1.4-1.2 2.5-2.6 2.5zM2.5 17c-.9 0-1.6.7-1.6 1.6v134.7c0 .9.7 1.6 1.6 1.6h256.1c.9 0 1.6-.7 1.6-1.6V18.6c0-.9-.7-1.6-1.6-1.6H2.5z" fill="#c6c8d0"/><path d="m114.8 132.7 3.2.5c.6.1.8.8.4 1.3l-2.3 2.4.5 3.4c.1.6-.5 1.1-1 .8l-2.8-1.6-2.8 1.5c-.5.3-1.1-.2-1-.8l.5-3.4-2.3-2.4c-.4-.4-.2-1.2.4-1.3l3.2-.5 1.4-3.1c.3-.6 1-.6 1.2 0l1.4 3.2zm15.6 0 3.2.5c.6.1.8.8.4 1.3l-2.3 2.4.5 3.4c.1.6-.5 1.1-1 .8l-2.8-1.6-2.8 1.6c-.5.3-1.1-.2-1-.8l.5-3.4-2.3-2.4c-.4-.4-.2-1.2.4-1.3l3.2-.5 1.4-3.1c.3-.6 1-.6 1.2 0l1.4 3.1zm15.5 0 3.2.5c.6.1.8.8.4 1.3l-2.3 2.4.5 3.4c.1.6-.5 1.1-1 .8l-2.8-1.6-2.9 1.5c-.5.3-1.1-.2-1-.8l.5-3.4-2.3-2.4c-.4-.4-.2-1.2.4-1.3l3.2-.5 1.4-3.1c.3-.6 1-.6 1.2 0l1.5 3.2zm15.5 0 3.2.5c.6.1.8.8.4 1.3l-2.3 2.4.5 3.4c.1.6-.5 1.1-1 .8l-2.8-1.6-2.8 1.6c-.5.3-1.1-.2-1-.8l.5-3.4-2.3-2.4c-.4-.4-.2-1.2.4-1.3l3.2-.5 1.4-3.1c.3-.6 1-.6 1.2 0l1.4 3.1zm15.5 0 3.2.5c.6.1.8.8.4 1.3l-2.3 2.4.5 3.4c.1.6-.5 1.1-1 .8l-2.8-1.6-2.9 1.5c-.5.3-1.1-.2-1-.8l.5-3.4-2.3-2.4c-.4-.4-.2-1.2.4-1.3l3.2-.5 1.4-3.1c.3-.6 1-.6 1.2 0l1.5 3.2z" style="fill:#ffd938"/><path d="M105.6 31h138v14h-138zm0 25h117v14h-117z" style="fill:#f3f4f6"/><path class="st4" d="M105.6 81h117v14h-117z"/><circle cx="253.5" cy="25.7" r="25.7" fill="#f53"/><path d="M258.7 16.4c4.2 0 7.2 3.1 7.2 7.2-.1 4.6-4.4 9.7-11.7 13.9-.4.2-.9.2-1.3 0-7.3-4.1-11.6-9.3-11.7-13.9 0-4.1 2.7-7.2 6.9-7.2 1.8 0 4 .9 5.4 2.1 1.4-1.3 3.4-2.1 5.2-2.1z" fill-rule="evenodd" clip-rule="evenodd" fill="#fff"/><path class="st4" d="M14.8 31h77c1.1 0 2 .9 2 2v108c0 1.1-.9 2-2 2h-77c-1.1 0-2-.9-2-2V33c0-1.1.9-2 2-2z"/><path d="M66.8 75h-26c-1.7 0-3 1.3-3 3v18c0 1.7 1.3 3 3 3h26c1.7 0 3-1.3 3-3V78c0-1.7-1.3-3-3-3zm-.4 21H41.2c-.1 0-.2 0-.3-.1-.1-.1-.1-.2-.1-.3V78.4c0-.1 0-.2.1-.3.1-.1.2-.1.3-.1h25.2c.1 0 .2 0 .3.1.1.1.1.2.1.3v17.2c0 .1 0 .2-.1.3-.1.1-.2.1-.3.1zM45.8 80.5c-1.4 0-2.5 1.1-2.5 2.5s1.1 2.5 2.5 2.5 2.5-1.1 2.5-2.5-1.1-2.5-2.5-2.5zm-2 12.5h20v-5l-5.5-5.5c-.3-.3-.8-.3-1.1 0L49.8 90l-2.5-2.5c-.3-.3-.8-.3-1.1 0L43.8 90v3z" fill="#6d7688"/></svg>